<svg version="1.1" id="Layer_1" xmlns="http://www.w3.org/2000/svg" xmlns:xlink="http://www.w3.org/1999/xlink" x="0px" y="0px"
	 width="267px" height="225px" viewBox="0 0 267 225" enable-background="new 0 0 267 225" xml:space="preserve">
<rect fill="none" width="267" height="225"/>
<g>
	<g>
		<polygon fill="#7AAD00" points="159.514,156.668 93.511,156.668 93.511,89.469 115.512,67.471 159.514,67.471 		"/>
		<polygon fill="#657F1C" points="123.357,97.317 93.511,89.469 115.512,67.471 		"/>
		<polygon fill="#C7E264" points="115.512,89.472 93.511,89.472 115.512,67.471 		"/>
	</g>
	<g>
		<polygon fill="none" stroke="#C6C6C6" stroke-miterlimit="10" points="85.014,126.735 129.014,73.59 150.927,136.916 		"/>
		<polygon fill="none" stroke="#C6C6C6" stroke-miterlimit="10" points="191.131,86.531 129.014,73.59 150.927,136.916 		"/>
		<polygon fill="none" stroke="#C6C6C6" stroke-miterlimit="10" points="206.661,153.825 150.927,136.916 191.131,86.531 		"/>
		<polygon fill="none" stroke="#C6C6C6" stroke-miterlimit="10" points="232.198,109.308 206.661,153.825 191.131,86.531 		"/>
		<polygon fill="none" stroke="#C6C6C6" stroke-miterlimit="10" points="227.712,171.77 232.198,109.308 206.661,153.825 		"/>
		<polygon fill="none" stroke="#C6C6C6" stroke-miterlimit="10" points="246.347,128.288 227.712,171.77 232.198,109.308 		"/>
		<polygon fill="none" stroke="#C6C6C6" stroke-miterlimit="10" points="240.48,77.731 246.347,128.288 232.198,109.308 		"/>
		<polygon fill="none" stroke="#C6C6C6" stroke-miterlimit="10" points="211.665,48.916 240.48,77.731 232.198,109.308 		"/>
		<polygon fill="none" stroke="#C6C6C6" stroke-miterlimit="10" points="162.143,29.936 211.665,48.916 191.131,86.531 		"/>
		<polygon fill="none" stroke="#C6C6C6" stroke-miterlimit="10" points="101.406,29.936 162.143,29.936 129.014,73.59 		"/>
		<polygon fill="none" stroke="#C6C6C6" stroke-miterlimit="10" points="64.826,73.59 129.014,73.59 101.406,29.936 		"/>
		<polygon fill="none" stroke="#C6C6C6" stroke-miterlimit="10" points="85.014,126.735 64.826,73.59 31.524,107.927 		"/>
		<polygon fill="none" stroke="#C6C6C6" stroke-miterlimit="10" points="44.12,51.763 64.826,73.59 31.524,107.927 		"/>
		<polygon fill="none" stroke="#C6C6C6" stroke-miterlimit="10" points="20.653,90.845 44.12,51.763 31.524,107.927 		"/>
		<polygon fill="none" stroke="#C6C6C6" stroke-miterlimit="10" points="22.034,138.986 31.524,107.927 20.653,90.845 		"/>
		<polygon fill="none" stroke="#C6C6C6" stroke-miterlimit="10" points="101.406,29.936 80.355,15.269 44.12,51.763 		"/>
		<polygon fill="none" stroke="#C6C6C6" stroke-miterlimit="10" points="133.155,3.19 101.406,29.936 80.355,15.269 		"/>
		<polygon fill="none" stroke="#C6C6C6" stroke-miterlimit="10" points="162.143,29.936 183.367,12.853 133.155,3.19 		"/>
		<polygon fill="none" stroke="#C6C6C6" stroke-miterlimit="10" points="211.665,48.916 183.367,12.853 162.143,29.936 		"/>
		<polygon fill="none" stroke="#C6C6C6" stroke-miterlimit="10" points="220.292,39.253 183.367,12.853 211.665,48.916 		"/>
		<polygon fill="none" stroke="#C6C6C6" stroke-miterlimit="10" points="240.48,77.731 220.292,39.253 211.665,48.916 		"/>
		<polygon fill="none" stroke="#C6C6C6" stroke-miterlimit="10" points="206.661,153.825 227.712,171.77 189.406,207.143 		"/>
		<polygon fill="none" stroke="#C6C6C6" stroke-miterlimit="10" points="162.143,190.923 206.661,153.825 150.927,136.916 		"/>
		<polygon fill="none" stroke="#C6C6C6" stroke-miterlimit="10" points="102.614,185.057 150.927,136.916 162.143,190.923 		"/>
		<polygon fill="none" stroke="#C6C6C6" stroke-miterlimit="10" points="85.014,126.735 102.614,185.057 50.677,160.037 		"/>
		<polygon fill="none" stroke="#C6C6C6" stroke-miterlimit="10" points="31.524,107.927 50.677,160.037 22.034,138.986 		"/>
		<polygon fill="none" stroke="#C6C6C6" stroke-miterlimit="10" points="43.257,182.468 50.677,160.037 22.034,138.986 		"/>
		<polygon fill="none" stroke="#C6C6C6" stroke-miterlimit="10" points="82.771,209.904 50.677,160.037 43.257,182.468 		"/>
		<polygon fill="none" stroke="#C6C6C6" stroke-miterlimit="10" points="102.614,185.057 82.771,209.904 133.155,221.81 		"/>
		<polygon fill="none" stroke="#C6C6C6" stroke-miterlimit="10" points="162.143,190.923 189.406,207.143 133.155,221.81 		"/>
		<polygon fill="none" stroke="#C6C6C6" stroke-miterlimit="10" points="101.406,29.936 64.826,73.59 44.12,51.763 		"/>
		<polygon fill="none" stroke="#C6C6C6" stroke-miterlimit="10" points="64.826,73.59 129.014,73.59 101.406,29.936 		"/>
		<polygon fill="none" stroke="#C6C6C6" stroke-miterlimit="10" points="44.12,51.763 64.826,73.59 31.524,107.927 		"/>
		<polygon fill="none" stroke="#C6C6C6" stroke-miterlimit="10" points="101.406,29.936 64.826,73.59 44.12,51.763 		"/>
	</g>
	<g>
		<circle fill="#72808F" cx="102.614" cy="185.057" r="3.147"/>
		<circle fill="#72808F" cx="162.086" cy="190.923" r="3.147"/>
		<circle fill="#72808F" cx="189.406" cy="207.143" r="3.147"/>
		<circle fill="#72808F" cx="246.347" cy="128.288" r="3.147"/>
		<circle fill="#72808F" cx="232.198" cy="109.308" r="3.147"/>
		<circle fill="#72808F" cx="206.661" cy="153.825" r="3.147"/>
		<circle fill="#72808F" cx="133.155" cy="221.81" r="3.147"/>
		<circle fill="#72808F" cx="82.771" cy="209.904" r="3.147"/>
		<circle fill="#72808F" cx="50.677" cy="160.037" r="3.147"/>
		<circle fill="#72808F" cx="43.257" cy="182.468" r="3.147"/>
		<circle fill="#72808F" cx="150.927" cy="136.916" r="3.147"/>
		<circle fill="#72808F" cx="129.014" cy="73.59" r="3.147"/>
		<circle fill="#72808F" cx="85.014" cy="126.735" r="3.147"/>
		<circle fill="#72808F" cx="31.524" cy="107.927" r="3.147"/>
		<circle fill="#72808F" cx="22.034" cy="138.986" r="3.147"/>
		<circle fill="#72808F" cx="20.653" cy="90.845" r="3.147"/>
		<circle fill="#72808F" cx="44.12" cy="51.763" r="3.147"/>
		<circle fill="#72808F" cx="64.826" cy="73.59" r="3.147"/>
		<circle fill="#72808F" cx="101.406" cy="29.936" r="3.147"/>
		<circle fill="#72808F" cx="80.355" cy="15.269" r="3.147"/>
		<circle fill="#72808F" cx="133.155" cy="3.19" r="3.147"/>
		<circle fill="#72808F" cx="183.367" cy="12.853" r="3.147"/>
		<circle fill="#72808F" cx="162.143" cy="29.936" r="3.147"/>
		<circle fill="#72808F" cx="211.664" cy="48.916" r="3.147"/>
		<circle fill="#72808F" cx="191.131" cy="86.531" r="3.147"/>
		<circle fill="#72808F" cx="240.48" cy="77.731" r="3.147"/>
		<circle fill="#72808F" cx="220.292" cy="39.253" r="3.147"/>
		<circle fill="#72808F" cx="227.712" cy="171.77" r="3.147"/>
	</g>
</g>
</svg>
