<?xml version="1.0" encoding="utf-8"?>
<!-- Generator: Adobe Illustrator 13.0.0, SVG Export Plug-In . SVG Version: 6.00 Build 14948)  -->
<!DOCTYPE svg PUBLIC "-//W3C//DTD SVG 1.1//EN" "http://www.w3.org/Graphics/SVG/1.1/DTD/svg11.dtd">
<svg version="1.1" id="Calque_1" xmlns="http://www.w3.org/2000/svg" xmlns:xlink="http://www.w3.org/1999/xlink" x="0px" y="0px"
	 width="512px" height="512px" viewBox="0 0 512 512" enable-background="new 0 0 512 512" xml:space="preserve">
<path id="tablet-4-icon" fill="#3CB771" d="M261.807,359.975c0.094-0.338,0.205-0.668,0.31-1.002H94.967v-236.5h321.762v141.918
	c21.976,8.078,37.739,37.086,44.968,59.551V114.473c0-17.674-14.316-32-31.978-32H81.977c-17.661,0-31.977,14.326-31.977,32v252.5
	c0,17.672,14.315,32,31.977,32H279.48C262.668,389.084,258.179,373.111,261.807,359.975z M268.295,231.724
	c10.955,0.001,21.501,6.967,24.962,18.571c-4.438-3.41-9.63-5.074-14.868-5.074c-5.308,0-10.664,1.709-15.334,5.043
	c-9.279,6.623-13.383,17.898-9.807,28.588c-14.427-10.34-14.494-31.912,0.042-42.288
	C257.924,233.257,263.152,231.724,268.295,231.724 M280.333,259.498c4.646,0,9.22,2.17,12.121,6.243l36.206,50.724
	c1.062,1.49,2.736,2.285,4.437,2.285c1.095,0,2.197-0.33,3.155-1.015c2.448-1.748,3.018-5.147,1.271-7.596l-8.927-12.525
	c4.036-1.024,8.938-2.252,14.364-3.577c0.747-0.185,1.501-0.271,2.247-0.271c3.015,0,5.908,1.443,7.71,3.975l7.304,10.246
	c1.062,1.49,2.736,2.285,4.438,2.285c1.093,0,2.196-0.328,3.153-1.012c2.446-1.748,3.018-5.148,1.271-7.6l-8.437-11.837
	c4.658-1.075,9.413-2.146,14.109-3.161c0.667-0.146,1.337-0.216,2.002-0.216c3.021,0,5.914,1.451,7.713,3.976l6.204,8.705
	c1.062,1.489,2.736,2.285,4.438,2.285c1.094,0,2.197-0.328,3.156-1.013c2.444-1.748,3.015-5.147,1.269-7.598l-6.951-9.756
	c1.409-0.262,2.795-0.515,4.146-0.748c1.875-0.326,3.641-0.484,5.309-0.484c11.208,0,18.132,7.109,25.797,17.865
	c19.753,27.715,14.276,47.232,34.16,75.133c-25.035,17.869-50.292,35.896-76.657,54.715c-41.372-30.848-77.091-40.739-88.626-44.618
	c-10.991-3.697-18.092-10.753-15.646-19.607c2.335-8.453,10.797-11.303,18.227-11.303c0.444,0,0.885,0.01,1.319,0.028
	c11.64,0.531,21.08,4.021,21.08,4.021l-53.465-75.015c-4.771-6.694-3.215-15.991,3.474-20.766
	C274.323,260.398,277.344,259.498,280.333,259.498"/>
</svg>
