<?xml version="1.0" encoding="utf-8"?>
<!-- Generator: Adobe Illustrator 13.0.0, SVG Export Plug-In . SVG Version: 6.00 Build 14948)  -->
<!DOCTYPE svg PUBLIC "-//W3C//DTD SVG 1.0//EN" "http://www.w3.org/TR/2001/REC-SVG-20010904/DTD/svg10.dtd">
<svg version="1.0" id="Calque_1" xmlns="http://www.w3.org/2000/svg" xmlns:xlink="http://www.w3.org/1999/xlink" x="0px" y="0px"
	 width="512px" height="424px" viewBox="0 0 512 424" enable-background="new 0 0 512 424" xml:space="preserve">
<g transform="translate(0.000000,424.000000) scale(0.100000,-0.100000)">
	<path fill="#3CB771" d="M820,4208.005c-53.999-27.002-80-73.008-80-139.004c0-27.998,35-165,88.999-354.004l88.999-308.994
		l-63.999-69.004C730,3203.005,621.001,3041.003,550,2884.997c-22.998-50-43.999-96.992-48.999-105c-5-10-55-20-168.003-35.996
		c-181.997-24.004-232.998-45-278.999-114.004c-50-75.996-53.999-107.002-53.999-460c0-365.996,3.999-395.996,65-467.002
		c53.999-62.998,101.001-80.996,275-102.998c83.999-10.996,153.999-20.996,155-22.002c1.001-1.992,27.002-55.996,57.998-120.996
		c31.001-65.996,85-162.998,120-215.996c58.003-88.008,219.004-285,260-320c24.004-19.004,23.003-37.002-25-397.002
		c-40.996-317.002-40.996-322.998-23.999-367.002c23.003-60.996,50-92.998,98.999-120C1023.999,14.997,1030,14.997,1435,14.997
		c455,0,437.998-1.992,512.998,69.004c49.004,45,73.003,98.994,86.001,190.996c13.003,92.002,0,85,141.001,64.004
		c55-7.998,172.002-14.004,300-12.998c215.996,0,345,12.998,520,53.994c44.004,10,82.002,17.002,85.996,14.004
		c4.004-2.002,10-27.998,14.004-57.002c20-165,47.002-227.002,120.996-275c75-50,113.008-53.994,524.004-50l375,2.998l47.002,27.998
		c47.998,28.008,88.994,84.004,102.002,139.004c2.998,15-12.002,165.996-34.004,335c-22.998,170-47.998,365-57.002,434.004
		l-15.996,125.996l70.996,99.004c172.001,238.994,292.997,551.992,317.997,821.992c4.004,40,12.002,76.006,18.008,80
		c5.996,5,33.994,17.002,60.996,27.002c77.002,27.998,135,59.004,195,104.004c30,22.998,82.998,55,117.002,72.002
		c33.994,15.996,73.994,43.994,88.994,61.992c35,41.006,71.006,120,80,175c10,66.006-15,53.008-55.996-30
		c-19.004-38.994-44.004-76.992-55.996-85l-21.006-12.998l14.004,72.002c30,161.006-35,309.004-152.002,347.998
		c-20,7.002-62.998,10-95,8.008c-80.996-6.006-129.004-40-167.002-115c-35.996-75-37.998-181.006-5-256.006
		c27.998-62.002,27.998-79.004,1.006-75c-19.004,2.998-25,17.002-46.006,122.998c-153.994,769.004-809.999,1356.006-1675.995,1500
		c-304.004,50-696.001,30-979.004-50c-47.998-13.994-93.999-25-102.998-25c-7.998,0-65,25-125,55
		c-182.002,91.006-447.002,188.008-642.998,235C892.998,4234.997,873.999,4234.997,820,4208.005z M1006.001,4049.001
		c201.997-52.998,451.997-149.004,621.001-240c105.996-57.002,125-59.004,236.997-25
		c618.003,187.998,1338.003,67.002,1855.005-312.002c97.998-70.996,301.992-275,373.994-372.998
		c159.004-217.998,264.003-480,297.001-742.998c17.002-131.006,7.002-361.006-20-488.008
		c-50.996-240.996-172.997-496.992-322.997-675.996c-20-24.004-39.004-57.002-42.002-75s19.004-219.004,50-447.002
		c59.004-445.996,60.996-470,42.998-487.998c-15.996-15.996-758.994-17.002-788.994-2.002c-32.002,17.998-46.006,60-63.008,194.004
		c-26.992,210.996-37.998,218.994-223.994,170.996c-297.002-75-640-88.994-915-37.998c-127.002,22.998-145,22.002-178.003-14.004
		c-22.998-25.996-27.998-45.996-38.999-133.994c-7.002-57.002-18.999-116.006-26.001-131.006c-30-58.994-25-57.998-431.001-57.998
		c-413.999,0-402.998-2.002-402.998,67.998c0,35,50,432.002,70,558.008c6.001,32.998,10,83.994,10,112.998
		c0,52.998-1.001,53.994-72.998,130c-195,202.002-280,330-400,602.998c-17.002,37.998-35,62.002-54.004,70.996
		c-15,8.008-90.996,23.008-167.998,32.002c-178.999,22.002-208.999,30-233.999,62.002c-20,25-21.001,37.998-21.001,367.002
		c0,372.002,0,372.002,57.002,394.004c15,5.996,100,20.996,187.998,31.992c167.998,22.002,198.999,33.008,221.001,81.006
		c140,297.998,206.997,403.994,370,587.002c41.001,45,76.001,92.998,80,105.996c2.998,14.004-28.999,142.002-86.001,337.002
		c-50,172.998-92.002,323.994-95,337.002C890,4076.003,902.002,4076.003,1006.001,4049.001z M4774.003,2638.005
		c20-28.008,20.996-100.01,1.992-136.006c-7.998-15-25.996-37.998-40-50.996l-25.996-24.004l-15,35.996
		c-7.998,20-15,59.004-15,87.002c0,44.004,5,56.006,29.004,81.006C4744.003,2666.003,4754.003,2666.999,4774.003,2638.005z"/>
	<path fill="#3CB771" d="M2340,3679.001c-110-14.004-202.002-40-227.002-65c-28.999-29.004-30-77.002-2.998-104.004
		c25-25,37.998-25,162.998,2.002c78.003,16.006,139.004,21.006,257.002,22.002c169.004,0.996,259.004-12.002,352.002-50
		c72.002-30,98.994-30,125.996-0.996c100,106.992-127.998,207.998-462.998,205C2467.998,3688.005,2376.001,3684.001,2340,3679.001z"
		/>
	<path fill="#3CB771" d="M1170,3088.005c-55-28.008-82.998-75-83.999-139.004c-1.001-54.004,20-90,75-127.002
		c27.998-20,42.998-22.998,86.997-20c66.001,6.006,100,29.004,131.001,92.002c21.001,42.002,22.002,52.002,12.002,85.996
		c-21.001,72.002-90,130-153.999,130C1225,3109.997,1193.999,3099.997,1170,3088.005z"/>
</g>
</svg>
